<?xml version="1.0" standalone="no"?>
<!DOCTYPE svg PUBLIC "-//W3C//DTD SVG 20010904//EN"
 "http://www.w3.org/TR/2001/REC-SVG-20010904/DTD/svg10.dtd">
<svg version="1.0" xmlns="http://www.w3.org/2000/svg"
 width="109.000000pt" height="107.000000pt" viewBox="0 0 209.000000 277.000000"
 preserveAspectRatio="xMidYMid meet">
<metadata>
Created by potrace 1.13, written by Peter Selinger 2001-2015
</metadata>
<g transform="translate(0.000000,277.000000) scale(0.100000,-0.100000)"
fill="#de5d83" stroke="none">
<path d="M73 2639 c16 -242 18 -459 8 -884 -20 -821 10 -1042 171 -1256 102
-136 252 -234 424 -280 113 -30 328 -37 454 -15 312 55 550 225 683 491 73
147 107 301 107 489 0 543 -356 909 -858 883 -172 -9 -313 -63 -447 -174 l-68
-56 7 179 c4 98 16 298 27 443 10 146 18 266 16 267 -1 2 -50 -2 -107 -7 -101
-10 -323 -6 -390 7 l-33 7 6 -94z m999 -910 c157 -33 264 -144 318 -329 30
-103 39 -342 16 -450 -34 -160 -124 -286 -246 -344 -61 -29 -72 -31 -180 -31
-105 0 -120 2 -171 27 -98 49 -157 120 -201 243 -45 125 -53 193 -53 443 l0
234 65 61 c134 127 295 179 452 146z"/>
</g>
</svg>
